<svg width="16" height="16" viewBox="0 0 16 16" fill="none" xmlns="http://www.w3.org/2000/svg">
    <path d="M5.08845 4.37109H2.63538C2.20165 4.37109 1.78569 4.54339 1.47899 4.85009C1.1723 5.15678 1 5.57275 1 6.00649V13.3658C1 13.7995 1.1723 14.2155 1.47899 14.5221C1.78569 14.8288 2.20165 15.0011 2.63538 15.0011H9.99459C10.4283 15.0011 10.8443 14.8288 11.151 14.5221C11.4577 14.2155 11.63 13.7995 11.63 13.3658V10.9127" stroke="#666666" stroke-width="1.5" stroke-linecap="round" stroke-linejoin="round"/>
    <path d="M5.08594 10.9116H7.53901L14.4894 3.96114C14.8147 3.63584 14.9974 3.19464 14.9974 2.7346C14.9974 2.27455 14.8147 1.83335 14.4894 1.50805C14.1641 1.18275 13.7229 1 13.2628 1C12.8028 1 12.3616 1.18275 12.0363 1.50805L5.08594 8.45847V10.9116Z" stroke="#666666" stroke-width="1.5" stroke-linecap="round" stroke-linejoin="round"/>
    <path d="M10.8125 2.73438L13.2656 5.18746" stroke="#666666" stroke-width="1.5" stroke-linecap="round" stroke-linejoin="round"/>
    </svg>
    